<svg width="99" height="100" viewBox="0 0 99 100" fill="none" xmlns="http://www.w3.org/2000/svg">
<circle cx="51.5" cy="47.5" r="47" fill="#213F89" fill-opacity="0.85" stroke="#38DEEA"/>
<path d="M91.7675 11.9138C91.5675 9.91379 90.0675 8.41379 88.0675 8.21379C62.7675 6.21379 44.6675 18.5138 33.3675 33.9138C27.1675 31.9138 20.4675 32.6138 14.3675 36.0138C8.4675 39.3138 3.5675 44.9138 0.3675 51.7138C-0.3325 53.3138 -0.0324999 55.1138 1.2675 56.3138C2.4675 57.5138 4.3675 57.7138 5.8675 56.9138C12.2675 53.5138 19.4675 54.2138 23.7675 58.5138L41.3675 76.1138L41.4675 76.2138C45.7675 80.5138 46.4675 87.7138 43.0675 94.1138C42.2675 95.6138 42.5675 97.5138 43.6675 98.7138C44.4675 99.5138 45.4675 99.9138 46.5675 99.9138C47.1675 99.9138 47.7675 99.8138 48.2675 99.5138C55.0675 96.3138 60.6675 91.3138 63.9675 85.5138C67.4675 79.4138 68.1675 72.7138 66.0675 66.4138C70.5675 63.1138 74.6675 59.5138 78.0675 55.5138C88.6675 43.4138 93.2675 28.7138 91.7675 11.9138ZM13.4675 46.8138C17.7675 42.6138 23.1675 40.0138 28.8675 41.0138C27.2675 43.8138 25.9675 46.6138 24.7675 49.4138C21.3675 47.5138 17.4675 46.6138 13.4675 46.8138ZM53.3675 86.6138C53.4675 82.5138 52.5675 78.6138 50.7675 75.2138C53.6675 74.0138 56.4675 72.6138 59.1675 71.1138C60.1675 76.8138 57.6675 82.3138 53.3675 86.6138ZM45.3675 68.7138L31.2675 54.6138C38.3675 35.7138 55.9675 15.5138 84.0675 16.0138C84.9675 49.5138 57.3675 64.0138 45.3675 68.7138ZM71.2675 28.8138C72.4675 30.0138 73.1675 31.7138 73.1675 33.4138C73.1675 35.1138 72.4675 36.8138 71.2675 38.0138C70.0675 39.2138 68.3675 39.9138 66.6675 39.9138C64.9675 39.9138 63.2675 39.3138 62.0675 38.0138C60.8675 36.7138 60.1675 35.1138 60.1675 33.4138C60.1675 31.7138 60.8675 30.0138 62.0675 28.8138C63.2675 27.6138 64.9675 26.9138 66.6675 26.9138C68.3675 26.9138 70.0675 27.6138 71.2675 28.8138ZM14.9675 70.4138C10.3675 75.0138 10.1675 84.2138 10.1675 86.0138C10.1675 88.2138 11.9675 90.0138 14.1675 90.0138H14.2675C16.3675 90.0138 25.1675 89.7138 29.6675 85.2138C32.4675 82.4138 33.0675 79.5138 33.0675 77.6138C33.0675 74.9138 31.9675 72.3138 29.8675 70.2138C24.8675 65.1138 18.5675 66.7138 14.9675 70.4138ZM24.0675 79.5138C23.0675 80.5138 20.8675 81.2138 18.5675 81.5138C18.9675 79.2138 19.6675 77.0138 20.5675 76.1138C21.2675 75.4138 21.8675 75.0138 22.5675 75.0138C23.0675 75.0138 23.6675 75.3138 24.2675 75.9138C24.8675 76.5138 25.1675 77.1138 25.1675 77.6138C25.0675 78.2138 24.5675 79.0138 24.0675 79.5138Z" fill="#38DEEA"/>
</svg>
